<svg xmlns="http://www.w3.org/2000/svg" xmlns:xlink="http://www.w3.org/1999/xlink" width="1920" zoomAndPan="magnify" viewBox="0 0 1440 809.999993" height="1080" preserveAspectRatio="xMidYMid meet" version="1.0"><defs><g/></defs><g fill="#ffffff" fill-opacity="1"><g transform="translate(176.813959, 444.440787)"><g><path d="M 17.195312 15.328125 C 22.527344 18.796875 29.460938 18.261719 33.992188 13.996094 C 38.390625 9.730469 40.925781 4.398438 40.925781 -1.867188 C 41.058594 -11.0625 38.390625 -19.460938 32.925781 -27.058594 L 30.925781 -29.726562 C 30.527344 -30.257812 30.660156 -30.925781 31.324219 -31.324219 C 31.59375 -31.59375 31.859375 -31.859375 32.125 -31.992188 C 38.257812 -36.523438 45.191406 -39.324219 52.386719 -41.457031 C 52.921875 -41.589844 53.453125 -41.589844 53.855469 -41.722656 C 57.453125 -42.125 60.917969 -42.523438 64.519531 -42.390625 L 69.71875 -42.390625 C 70.382812 -42.390625 70.917969 -42.390625 71.582031 -42.65625 C 72.117188 -42.789062 72.515625 -43.324219 72.648438 -43.988281 C 72.648438 -44.65625 72.25 -45.191406 71.582031 -45.457031 C 70.917969 -45.589844 70.25 -45.722656 69.449219 -45.722656 C 64.785156 -45.457031 60.121094 -45.324219 55.453125 -44.921875 C 53.1875 -44.789062 50.921875 -44.257812 48.65625 -43.457031 C 42.125 -41.191406 35.726562 -38.65625 30.257812 -34.390625 L 29.859375 -34.125 C 28.394531 -33.191406 28.261719 -33.191406 26.792969 -34.660156 C 25.726562 -35.859375 24.660156 -37.058594 23.59375 -38.257812 L 11.199219 -51.855469 C 8.796875 -54.652344 6.796875 -57.71875 5.199219 -61.1875 C 3.066406 -65.585938 2.53125 -70.382812 3.464844 -75.183594 C 4.265625 -80.25 6.53125 -84.648438 9.996094 -88.644531 C 12.53125 -91.578125 15.863281 -93.445312 19.863281 -93.976562 C 24.792969 -94.644531 29.59375 -94.113281 34.390625 -92.511719 C 36.65625 -91.710938 38.523438 -90.378906 39.859375 -88.378906 C 41.992188 -85.179688 42.921875 -81.714844 42.523438 -77.847656 C 41.589844 -70.648438 34.925781 -66.25 27.992188 -68.117188 C 27.59375 -68.25 27.058594 -68.515625 26.660156 -68.515625 C 26.128906 -68.652344 25.59375 -68.382812 25.328125 -67.984375 C 24.925781 -67.316406 25.0625 -66.785156 25.460938 -66.25 C 26.527344 -65.050781 28.125 -64.785156 29.460938 -64.652344 C 36.125 -64.117188 41.589844 -67.449219 44.125 -72.648438 C 48.65625 -82.246094 43.191406 -93.710938 32.925781 -96.109375 C 29.59375 -96.910156 26.261719 -97.175781 22.929688 -97.175781 C 17.730469 -97.175781 12.929688 -95.84375 9.199219 -92.113281 C 2 -84.914062 -1.066406 -76.382812 0.398438 -66.25 C 0.933594 -63.050781 2.265625 -60.121094 3.734375 -57.320312 C 5.332031 -54.253906 7.464844 -51.453125 9.730469 -48.921875 C 13.863281 -44.390625 17.863281 -39.992188 21.996094 -35.589844 C 22.792969 -34.523438 23.726562 -33.59375 24.660156 -32.527344 C 25.726562 -31.191406 25.726562 -30.925781 24.660156 -29.726562 L 23.859375 -28.925781 C 19.328125 -24.394531 15.597656 -19.195312 12.398438 -13.597656 C 11.464844 -11.730469 10.53125 -9.863281 9.863281 -7.863281 C 8 -2.398438 8.53125 2.800781 10.796875 8 C 12.265625 11.0625 14.398438 13.464844 17.195312 15.328125 Z M 17.460938 11.730469 C 12.128906 6.796875 10.929688 0.667969 12.53125 -6.132812 C 12.796875 -6.933594 13.0625 -7.863281 13.464844 -8.53125 C 16.796875 -15.730469 21.195312 -22.261719 26.925781 -27.59375 C 27.195312 -27.859375 27.328125 -27.859375 27.992188 -28.125 C 30.125 -26.128906 31.59375 -23.726562 32.925781 -21.328125 C 36.125 -15.597656 37.859375 -9.464844 37.992188 -3.066406 C 38.125 2.398438 36.257812 7.066406 32.527344 11.0625 C 28.261719 15.597656 22.128906 15.863281 17.460938 11.730469 Z M 17.460938 11.730469 "/></g></g></g><g fill="#ffffff" fill-opacity="1"><g transform="translate(245.4619, 444.440787)"><g><path d="M 58.652344 -18.128906 C 63.585938 -18.664062 67.71875 -21.0625 71.582031 -24.128906 C 77.449219 -28.792969 81.847656 -34.660156 85.714844 -41.058594 C 85.980469 -41.589844 86.246094 -42.390625 86.511719 -43.058594 C 86.511719 -43.589844 86.246094 -43.988281 85.847656 -44.257812 C 85.3125 -44.523438 84.914062 -44.523438 84.378906 -44.390625 C 83.714844 -43.988281 83.3125 -43.324219 83.046875 -42.65625 C 80.382812 -38.257812 77.183594 -34.125 73.714844 -30.257812 C 71.183594 -27.59375 68.25 -25.328125 65.050781 -23.460938 C 57.71875 -19.195312 45.988281 -19.996094 39.589844 -29.59375 C 37.589844 -32.527344 36.125 -35.726562 35.191406 -39.191406 C 34.257812 -42.257812 33.59375 -45.457031 32.925781 -48.523438 C 32.660156 -49.589844 32.390625 -50.65625 31.726562 -51.589844 C 30.792969 -53.054688 29.460938 -53.453125 27.992188 -52.519531 C 27.195312 -51.988281 26.394531 -51.320312 25.726562 -50.523438 C 24.792969 -49.320312 23.859375 -47.988281 23.0625 -46.65625 C 20.796875 -43.324219 18.664062 -39.992188 16.53125 -36.792969 C 15.464844 -35.191406 14.398438 -33.726562 12.929688 -32.527344 C 10.664062 -30.660156 8.796875 -30.925781 7.066406 -33.324219 C 5.730469 -35.191406 4.933594 -37.191406 4.664062 -39.457031 C 4.265625 -43.855469 4.933594 -48.121094 5.867188 -52.253906 C 6 -53.054688 6.265625 -53.722656 6.265625 -54.386719 C 6.398438 -55.054688 6.132812 -55.71875 5.464844 -55.855469 C 4.800781 -56.121094 4 -55.855469 3.597656 -55.1875 C 3.332031 -54.652344 3.066406 -54.121094 2.933594 -53.453125 C 2.132812 -49.855469 1.464844 -46.257812 1.332031 -42.523438 C 1.332031 -40.65625 1.601562 -38.925781 2 -37.058594 C 2.53125 -34.792969 3.464844 -32.660156 4.933594 -30.792969 C 7.730469 -27.59375 11.0625 -27.195312 14.398438 -29.726562 C 15.464844 -30.527344 16.394531 -31.59375 17.328125 -32.527344 C 18.261719 -33.726562 19.195312 -35.058594 20.128906 -36.390625 C 21.996094 -39.191406 23.726562 -41.992188 25.59375 -44.789062 L 27.59375 -47.855469 C 27.992188 -48.390625 28.394531 -48.921875 29.058594 -48.921875 C 29.726562 -48.789062 29.859375 -48.121094 29.992188 -47.457031 C 29.992188 -46.921875 30.125 -46.390625 30.257812 -45.988281 C 30.925781 -43.191406 31.460938 -40.523438 32.257812 -37.722656 C 33.59375 -33.59375 35.457031 -29.460938 38.390625 -25.992188 C 43.589844 -19.59375 50.523438 -17.195312 58.652344 -18.128906 Z M 58.652344 -18.128906 "/></g></g></g><g fill="#ffffff" fill-opacity="1"><g transform="translate(327.972733, 444.440787)"><g><path d="M 4.132812 -51.589844 C 4.664062 -51.320312 5.332031 -51.453125 5.597656 -51.855469 C 6.265625 -52.519531 6.796875 -53.320312 7.332031 -54.121094 L 13.730469 -65.183594 C 13.996094 -65.585938 13.996094 -65.984375 14.128906 -66.382812 C 13.996094 -66.652344 13.863281 -67.050781 13.597656 -67.183594 C 13.0625 -67.449219 12.53125 -67.449219 12.128906 -67.050781 C 11.332031 -66.117188 10.664062 -65.183594 9.996094 -64.25 L 4 -54.121094 L 3.597656 -53.1875 C 3.332031 -52.519531 3.597656 -51.722656 4.132812 -51.589844 Z M 17.195312 -17.597656 C 19.328125 -17.597656 21.59375 -17.730469 23.726562 -18.261719 C 28.527344 -19.328125 32.792969 -21.460938 36.65625 -24.261719 C 41.855469 -27.859375 46.390625 -32.257812 50.789062 -36.65625 C 52.386719 -38.257812 53.988281 -39.859375 55.453125 -41.457031 C 55.988281 -41.992188 56.121094 -42.789062 55.585938 -43.457031 C 55.054688 -43.988281 54.253906 -44.125 53.585938 -43.589844 C 52.519531 -42.789062 51.453125 -41.855469 50.523438 -40.925781 C 47.054688 -37.191406 43.457031 -33.726562 39.589844 -30.394531 C 35.859375 -27.195312 31.859375 -24.394531 27.195312 -22.527344 C 22.792969 -20.796875 18.261719 -20.128906 13.464844 -21.0625 C 10.265625 -21.59375 8 -23.195312 6.398438 -25.859375 C 3.867188 -29.992188 2.667969 -34.390625 3.332031 -39.191406 C 3.464844 -40.257812 3.597656 -41.457031 3.597656 -42.523438 C 3.734375 -43.191406 3.332031 -43.722656 2.667969 -43.855469 C 2.132812 -44.125 1.199219 -43.722656 0.933594 -42.921875 C 0.667969 -41.992188 0.265625 -41.058594 0.132812 -40.125 C -0.398438 -35.058594 0.398438 -30.394531 2.667969 -25.859375 C 5.332031 -20.660156 9.464844 -17.730469 15.328125 -17.730469 C 15.863281 -17.597656 16.53125 -17.597656 17.195312 -17.597656 Z M 17.195312 -17.597656 "/></g></g></g><g fill="#ffffff" fill-opacity="1"><g transform="translate(379.958561, 444.440787)"><g><path d="M 72.515625 -43.589844 C 71.984375 -43.988281 71.316406 -44.125 70.785156 -43.855469 C 70.382812 -43.589844 69.984375 -43.324219 69.71875 -42.921875 C 68.785156 -41.855469 67.984375 -40.789062 67.183594 -39.722656 C 62.117188 -32.925781 56.519531 -26.792969 50.253906 -21.195312 C 47.324219 -18.527344 44.125 -16.261719 40.65625 -14.398438 C 39.191406 -13.730469 37.722656 -12.929688 36.125 -12.929688 C 27.59375 -12.53125 20.128906 -14.796875 14.53125 -21.726562 C 11.996094 -24.792969 10.132812 -28.261719 8.53125 -31.859375 C 5.464844 -37.859375 5.066406 -40.789062 5.730469 -44.921875 C 5.730469 -44.390625 9.730469 -64.386719 11.597656 -81.046875 L 59.984375 -81.046875 C 61.984375 -81.046875 62.117188 -83.714844 59.984375 -83.714844 L 11.863281 -83.714844 C 12.265625 -88.113281 12.53125 -92.246094 12.398438 -95.578125 C 12.265625 -96.777344 11.863281 -97.976562 11.0625 -98.910156 C 9.597656 -100.777344 7.332031 -100.910156 5.597656 -99.445312 C 4.53125 -98.511719 3.867188 -97.3125 3.332031 -96.109375 C 1.867188 -92.777344 0.933594 -89.3125 0.535156 -85.847656 C 0.535156 -85.179688 0.398438 -84.378906 0.398438 -83.714844 L -29.726562 -83.714844 C -31.59375 -83.714844 -31.59375 -81.046875 -29.726562 -81.046875 L 0.132812 -81.046875 C -1.199219 -61.585938 -2.398438 -42.390625 10.398438 -22.128906 C 14.796875 -15.464844 20.929688 -11.863281 28.394531 -10.265625 C 33.992188 -9.066406 39.457031 -9.730469 44.390625 -12.929688 C 47.457031 -14.929688 50.386719 -17.195312 53.1875 -19.59375 C 60.121094 -25.992188 66.117188 -33.058594 71.714844 -40.65625 C 72.117188 -41.058594 72.382812 -41.589844 72.648438 -42.125 C 72.917969 -42.65625 72.78125 -43.191406 72.515625 -43.589844 Z M 4 -88.644531 C 4.53125 -91.3125 5.332031 -93.84375 6.796875 -96.246094 C 7.066406 -96.777344 7.597656 -97.175781 8.265625 -97.042969 C 8.929688 -96.910156 9.199219 -96.246094 9.199219 -95.710938 C 9.597656 -92.777344 9.597656 -88.511719 9.199219 -83.714844 L 3.332031 -83.714844 C 3.464844 -85.3125 3.734375 -87.046875 4 -88.644531 Z M 2.667969 -76.25 C 2.800781 -77.714844 2.933594 -79.316406 3.066406 -81.046875 L 8.929688 -81.046875 C 7.730469 -69.183594 4.933594 -54.519531 3.464844 -46.257812 C 1.601562 -58.253906 2.667969 -74.78125 2.667969 -76.25 Z M 2.667969 -76.25 "/></g></g></g><g fill="#ffffff" fill-opacity="1"><g transform="translate(448.739812, 444.440787)"><g><path d="M 19.863281 -30.394531 C 21.863281 -30.527344 23.859375 -30.527344 25.859375 -30.792969 C 26.925781 -30.792969 27.992188 -31.191406 29.058594 -31.460938 C 36.792969 -34.125 43.988281 -37.722656 50.253906 -43.058594 C 50.65625 -43.324219 51.054688 -43.589844 51.453125 -43.988281 C 51.855469 -44.65625 51.988281 -45.324219 51.453125 -45.988281 C 51.054688 -46.65625 50.253906 -46.789062 49.589844 -46.257812 C 48.390625 -45.457031 47.324219 -44.65625 46.257812 -43.855469 C 41.191406 -39.859375 35.324219 -37.191406 29.328125 -34.925781 C 23.859375 -32.925781 17.996094 -33.058594 12.265625 -34.390625 C 10.664062 -34.792969 9.066406 -35.589844 7.597656 -36.390625 C 5.867188 -37.457031 4.664062 -38.925781 3.867188 -40.789062 C 3.464844 -41.722656 3.734375 -42.390625 4.933594 -42.65625 C 5.730469 -42.789062 6.53125 -42.921875 7.464844 -43.191406 C 9.730469 -43.589844 11.863281 -44.65625 13.597656 -46.257812 C 15.0625 -47.722656 15.996094 -49.320312 16.261719 -51.453125 C 16.53125 -53.585938 15.863281 -55.1875 13.730469 -56.253906 C 11.332031 -57.585938 8.796875 -57.453125 6.398438 -56.121094 C -0.667969 -52.121094 -2.265625 -41.058594 3.734375 -35.324219 C 5.332031 -33.859375 7.066406 -32.925781 9.066406 -32.125 C 12.53125 -30.792969 16.261719 -30.394531 19.863281 -30.394531 Z M 5.066406 -45.988281 C 4 -45.988281 3.464844 -46.390625 3.597656 -47.054688 C 4.132812 -50.253906 5.867188 -52.386719 8.796875 -53.722656 C 9.332031 -53.988281 9.996094 -53.988281 10.53125 -53.988281 C 12.929688 -53.855469 13.863281 -52.253906 12.664062 -50.253906 C 10.929688 -47.1875 8 -46.257812 5.066406 -45.988281 Z M 5.066406 -45.988281 "/></g></g></g><g fill="#ffffff" fill-opacity="1"><g transform="translate(496.593442, 444.440787)"><g/></g></g><g fill="#ffffff" fill-opacity="1"><g transform="translate(556.577077, 444.440787)"><g><path d="M 26.792969 16.929688 C 28.527344 17.863281 30.125 17.460938 31.058594 15.464844 C 31.460938 14.664062 31.726562 13.730469 31.859375 12.664062 C 32.925781 8.132812 32.390625 3.597656 31.59375 -0.800781 C 30.925781 -4.53125 30.925781 -4.398438 34.390625 -5.730469 C 39.722656 -7.597656 44.789062 -9.996094 49.1875 -13.730469 C 58.519531 -21.996094 66.519531 -31.59375 73.316406 -41.992188 C 73.714844 -42.65625 74.117188 -43.324219 74.382812 -43.988281 C 74.515625 -44.65625 74.117188 -45.191406 73.582031 -45.457031 C 73.050781 -45.722656 72.515625 -45.722656 72.117188 -45.324219 C 71.714844 -45.054688 71.449219 -44.65625 71.183594 -44.257812 C 70.117188 -42.921875 69.183594 -41.457031 68.25 -39.992188 C 62.386719 -31.460938 55.453125 -23.726562 47.855469 -16.796875 C 43.191406 -12.53125 37.589844 -9.996094 31.726562 -8.132812 C 30.125 -7.597656 29.859375 -7.863281 29.058594 -9.332031 C 28.792969 -9.730469 28.660156 -10.265625 28.394531 -10.664062 C 26.128906 -15.597656 22.261719 -18.929688 17.195312 -20.660156 C 15.195312 -21.328125 13.195312 -21.996094 11.0625 -22.128906 C 9.597656 -22.128906 8.929688 -22.929688 8.664062 -24.261719 C 7.332031 -29.726562 6.53125 -35.324219 6 -41.058594 C 5.597656 -45.324219 5.332031 -44.523438 8.53125 -47.457031 C 17.460938 -55.855469 24.527344 -65.71875 31.058594 -76.117188 C 33.324219 -79.714844 35.191406 -83.582031 36.523438 -87.714844 C 37.859375 -91.578125 38.523438 -95.578125 38.925781 -99.84375 C 38.65625 -101.84375 38.523438 -104.109375 37.589844 -106.109375 C 36.125 -109.707031 33.726562 -112.375 29.726562 -113.171875 C 26.792969 -113.839844 24.128906 -113.039062 21.59375 -111.574219 C 19.730469 -110.507812 18.261719 -109.175781 16.796875 -107.574219 C 13.195312 -103.710938 10.265625 -99.308594 8.132812 -94.378906 C 4.398438 -85.714844 2.800781 -76.515625 2.398438 -67.050781 C 2.132812 -57.988281 2 -48.921875 2.933594 -39.859375 C 3.464844 -35.324219 4 -30.792969 5.066406 -26.394531 C 5.199219 -25.328125 5.464844 -24.128906 5.730469 -23.0625 C 5.867188 -22.261719 5.730469 -21.59375 4.933594 -21.195312 L 4 -20.660156 C -0.398438 -17.460938 -1.199219 -12.796875 2 -8.53125 C 3.867188 -6.132812 6 -4.398438 8.929688 -3.734375 C 11.332031 -3.066406 12.53125 -1.601562 13.464844 0.535156 C 15.328125 4.800781 17.996094 8.664062 21.0625 12.265625 C 22.660156 14.128906 24.527344 15.730469 26.792969 16.929688 Z M 6 -49.855469 C 5.066406 -50.253906 5.464844 -51.722656 5.332031 -52.65625 L 5.332031 -61.71875 C 5.730469 -68.785156 5.867188 -75.183594 7.332031 -81.582031 C 8.664062 -87.179688 10.53125 -92.511719 13.195312 -97.445312 C 15.195312 -100.910156 17.597656 -103.976562 20.527344 -106.773438 C 21.59375 -107.839844 22.929688 -108.90625 24.394531 -109.574219 C 27.992188 -111.175781 31.59375 -110.109375 33.726562 -106.773438 C 35.058594 -104.910156 35.589844 -102.777344 35.589844 -100.511719 C 35.726562 -96.644531 34.925781 -92.910156 33.726562 -89.3125 C 32.792969 -86.378906 31.726562 -83.449219 30.125 -80.78125 C 24.128906 -70.25 17.195312 -60.253906 8.53125 -51.589844 C 7.730469 -50.789062 7.199219 -49.457031 6 -49.855469 Z M 18.664062 -5.730469 C 13.464844 -5.867188 14.261719 -5.332031 12.53125 -9.996094 C 11.730469 -12.398438 11.0625 -14.929688 10.398438 -17.460938 C 10.132812 -18.261719 10.664062 -19.0625 11.464844 -18.929688 C 17.996094 -17.863281 23.328125 -14.929688 25.992188 -8.53125 C 26.527344 -7.199219 26.261719 -6.796875 24.925781 -6.398438 C 22.929688 -5.867188 20.796875 -5.730469 18.664062 -5.730469 Z M 8.796875 -7.066406 C 6.53125 -8.132812 4.800781 -9.597656 3.734375 -11.730469 C 2.667969 -13.996094 3.332031 -15.996094 5.199219 -17.597656 C 5.464844 -17.863281 5.867188 -17.863281 6.53125 -18.128906 C 6.664062 -17.996094 6.933594 -17.597656 6.933594 -17.328125 C 8 -14.261719 8.929688 -11.0625 9.863281 -7.863281 C 9.863281 -7.730469 9.863281 -7.464844 9.730469 -7.199219 C 9.464844 -6.933594 9.066406 -6.933594 8.796875 -7.066406 Z M 26.394531 12.929688 C 25.726562 12.398438 25.0625 11.863281 24.394531 11.199219 C 21.195312 7.730469 18.394531 3.867188 16.394531 -0.535156 C 15.730469 -2 15.996094 -2.398438 17.730469 -2.398438 C 20.527344 -2.53125 23.328125 -2.800781 26.128906 -3.332031 C 27.195312 -3.597656 27.726562 -3.199219 27.992188 -2.132812 C 28.925781 0.933594 29.058594 4.132812 29.191406 7.597656 C 29.058594 8.796875 29.058594 10.398438 28.792969 11.996094 C 28.660156 13.730469 27.859375 13.996094 26.394531 12.929688 Z M 26.394531 12.929688 "/></g></g></g><g fill="#ffffff" fill-opacity="1"><g transform="translate(626.957883, 444.440787)"><g><path d="M 39.859375 -14.796875 C 41.992188 -14.929688 44.125 -15.464844 46.257812 -16.128906 C 51.1875 -17.996094 55.1875 -20.929688 58.785156 -24.527344 C 63.851562 -29.59375 67.449219 -35.859375 71.316406 -41.855469 C 71.582031 -42.125 71.714844 -42.390625 71.714844 -42.789062 C 71.851562 -43.457031 71.582031 -43.988281 70.917969 -44.257812 C 70.515625 -44.523438 69.984375 -44.523438 69.582031 -44.257812 C 69.050781 -43.855469 68.652344 -43.324219 68.382812 -42.789062 L 63.183594 -35.191406 C 60.917969 -31.460938 58.121094 -28.261719 55.054688 -25.328125 C 51.589844 -21.996094 47.589844 -19.59375 42.921875 -18.394531 C 37.722656 -17.0625 33.191406 -18.128906 29.191406 -21.726562 C 25.859375 -24.660156 23.328125 -28.261719 21.59375 -32.390625 C 20.527344 -34.925781 19.59375 -37.457031 18.664062 -39.992188 C 17.328125 -43.722656 14.796875 -45.589844 10.796875 -45.324219 L 8.265625 -45.324219 C 5.332031 -45.324219 5.199219 -45.589844 5.867188 -48.253906 C 6.53125 -50.65625 7.066406 -53.054688 7.066406 -55.585938 C 7.199219 -58.253906 6.664062 -60.917969 5.332031 -63.320312 C 2.53125 -68.515625 -3.734375 -69.582031 -8.132812 -65.71875 C -9.066406 -64.917969 -9.863281 -63.984375 -10.398438 -62.917969 C -13.464844 -56.652344 -11.996094 -51.054688 -7.464844 -47.1875 C -3.332031 -43.324219 5.332031 -41.992188 10.265625 -42.257812 C 13.597656 -42.523438 14.53125 -41.722656 15.730469 -38.65625 C 16.796875 -36.125 17.730469 -33.59375 18.796875 -31.058594 C 20.796875 -26.261719 23.726562 -22.128906 27.859375 -18.664062 C 31.324219 -15.863281 35.324219 -14.53125 39.859375 -14.796875 Z M 0.933594 -46.390625 C -1.332031 -46.921875 -3.464844 -47.855469 -5.332031 -49.457031 C -9.464844 -52.921875 -9.464844 -57.585938 -7.730469 -61.050781 C -6.398438 -64.117188 -3.332031 -65.453125 -0.535156 -64.652344 C 1.066406 -64.117188 2.265625 -63.183594 3.066406 -61.71875 C 4.265625 -59.585938 4.398438 -57.1875 4.53125 -55.1875 C 4.265625 -52.253906 4 -49.722656 3.066406 -47.324219 C 2.53125 -46.390625 2.132812 -46.121094 0.933594 -46.390625 Z M 0.933594 -46.390625 "/></g></g></g><g fill="#ffffff" fill-opacity="1"><g transform="translate(694.672735, 444.440787)"><g><path d="M 19.863281 -30.394531 C 21.863281 -30.527344 23.859375 -30.527344 25.859375 -30.792969 C 26.925781 -30.792969 27.992188 -31.191406 29.058594 -31.460938 C 36.792969 -34.125 43.988281 -37.722656 50.253906 -43.058594 C 50.65625 -43.324219 51.054688 -43.589844 51.453125 -43.988281 C 51.855469 -44.65625 51.988281 -45.324219 51.453125 -45.988281 C 51.054688 -46.65625 50.253906 -46.789062 49.589844 -46.257812 C 48.390625 -45.457031 47.324219 -44.65625 46.257812 -43.855469 C 41.191406 -39.859375 35.324219 -37.191406 29.328125 -34.925781 C 23.859375 -32.925781 17.996094 -33.058594 12.265625 -34.390625 C 10.664062 -34.792969 9.066406 -35.589844 7.597656 -36.390625 C 5.867188 -37.457031 4.664062 -38.925781 3.867188 -40.789062 C 3.464844 -41.722656 3.734375 -42.390625 4.933594 -42.65625 C 5.730469 -42.789062 6.53125 -42.921875 7.464844 -43.191406 C 9.730469 -43.589844 11.863281 -44.65625 13.597656 -46.257812 C 15.0625 -47.722656 15.996094 -49.320312 16.261719 -51.453125 C 16.53125 -53.585938 15.863281 -55.1875 13.730469 -56.253906 C 11.332031 -57.585938 8.796875 -57.453125 6.398438 -56.121094 C -0.667969 -52.121094 -2.265625 -41.058594 3.734375 -35.324219 C 5.332031 -33.859375 7.066406 -32.925781 9.066406 -32.125 C 12.53125 -30.792969 16.261719 -30.394531 19.863281 -30.394531 Z M 5.066406 -45.988281 C 4 -45.988281 3.464844 -46.390625 3.597656 -47.054688 C 4.132812 -50.253906 5.867188 -52.386719 8.796875 -53.722656 C 9.332031 -53.988281 9.996094 -53.988281 10.53125 -53.988281 C 12.929688 -53.855469 13.863281 -52.253906 12.664062 -50.253906 C 10.929688 -47.1875 8 -46.257812 5.066406 -45.988281 Z M 5.066406 -45.988281 "/></g></g></g><g fill="#ffffff" fill-opacity="1"><g transform="translate(742.526365, 444.440787)"><g><path d="M 57.1875 -26.128906 C 61.984375 -24.792969 66.785156 -25.0625 71.582031 -27.058594 C 78.914062 -30.257812 85.046875 -35.191406 90.644531 -40.789062 C 90.777344 -41.058594 90.914062 -41.191406 91.046875 -41.324219 C 91.84375 -42.390625 91.980469 -43.457031 91.3125 -43.988281 C 90.644531 -44.523438 89.847656 -44.390625 88.914062 -43.589844 C 88.246094 -42.921875 87.578125 -42.257812 86.914062 -41.457031 C 81.714844 -36.390625 76.117188 -32.257812 69.316406 -29.59375 C 67.585938 -28.925781 65.71875 -28.394531 63.851562 -28.394531 C 58.519531 -28.527344 53.453125 -29.992188 49.054688 -33.324219 C 45.054688 -36.523438 41.722656 -40.257812 38.523438 -44.125 C 35.992188 -47.324219 33.457031 -50.523438 30.925781 -53.722656 L 28.925781 -55.855469 C 26.394531 -57.851562 23.460938 -57.988281 20.796875 -56.121094 C 18.929688 -54.921875 17.730469 -53.1875 16.664062 -51.453125 C 15.597656 -49.457031 14.53125 -47.457031 13.597656 -45.457031 C 12.398438 -43.058594 11.332031 -40.523438 10.132812 -38.125 C 9.199219 -36.257812 8.265625 -34.390625 6.933594 -32.792969 C 6.398438 -32.125 5.867188 -31.191406 4.933594 -31.460938 C 4.265625 -31.726562 4 -32.527344 3.734375 -33.324219 C 3.066406 -35.992188 2.933594 -38.65625 3.332031 -41.324219 C 3.464844 -42.257812 3.464844 -43.058594 3.464844 -43.855469 C 3.464844 -44.390625 3.066406 -44.789062 2.667969 -44.921875 C 2 -45.191406 1.332031 -45.054688 0.933594 -44.523438 C 0.667969 -43.988281 0.398438 -43.324219 0.398438 -42.789062 C 0.132812 -41.457031 0.132812 -40.125 0 -38.523438 C 0.132812 -37.324219 0.132812 -35.992188 0.265625 -34.660156 C 0.535156 -33.324219 0.800781 -31.992188 1.332031 -30.792969 C 2.800781 -27.328125 5.464844 -26.792969 8 -29.328125 C 8.929688 -30.257812 9.730469 -31.191406 10.398438 -32.257812 C 11.863281 -34.390625 13.0625 -36.925781 14.261719 -39.324219 C 15.464844 -41.992188 16.664062 -44.65625 17.996094 -47.324219 C 18.664062 -48.789062 19.59375 -50.121094 20.527344 -51.453125 C 22.929688 -54.789062 25.726562 -55.320312 28.527344 -51.722656 C 30.925781 -48.523438 33.457031 -45.589844 35.859375 -42.390625 C 38.789062 -38.925781 41.855469 -35.589844 45.191406 -32.527344 C 48.65625 -29.328125 52.65625 -27.328125 57.1875 -26.128906 Z M 57.1875 -26.128906 "/></g></g></g><g fill="#ffffff" fill-opacity="1"><g transform="translate(830.235762, 444.440787)"><g><path d="M 72.515625 -43.589844 C 71.984375 -43.988281 71.316406 -44.125 70.785156 -43.855469 C 70.382812 -43.589844 69.984375 -43.324219 69.71875 -42.921875 C 68.785156 -41.855469 67.984375 -40.789062 67.183594 -39.722656 C 62.117188 -32.925781 56.519531 -26.792969 50.253906 -21.195312 C 47.324219 -18.527344 44.125 -16.261719 40.65625 -14.398438 C 39.191406 -13.730469 37.722656 -12.929688 36.125 -12.929688 C 27.59375 -12.53125 20.128906 -14.796875 14.53125 -21.726562 C 11.996094 -24.792969 10.132812 -28.261719 8.53125 -31.859375 C 5.464844 -37.859375 5.066406 -40.789062 5.730469 -44.921875 C 5.730469 -44.390625 9.730469 -64.386719 11.597656 -81.046875 L 59.984375 -81.046875 C 61.984375 -81.046875 62.117188 -83.714844 59.984375 -83.714844 L 11.863281 -83.714844 C 12.265625 -88.113281 12.53125 -92.246094 12.398438 -95.578125 C 12.265625 -96.777344 11.863281 -97.976562 11.0625 -98.910156 C 9.597656 -100.777344 7.332031 -100.910156 5.597656 -99.445312 C 4.53125 -98.511719 3.867188 -97.3125 3.332031 -96.109375 C 1.867188 -92.777344 0.933594 -89.3125 0.535156 -85.847656 C 0.535156 -85.179688 0.398438 -84.378906 0.398438 -83.714844 L -29.726562 -83.714844 C -31.59375 -83.714844 -31.59375 -81.046875 -29.726562 -81.046875 L 0.132812 -81.046875 C -1.199219 -61.585938 -2.398438 -42.390625 10.398438 -22.128906 C 14.796875 -15.464844 20.929688 -11.863281 28.394531 -10.265625 C 33.992188 -9.066406 39.457031 -9.730469 44.390625 -12.929688 C 47.457031 -14.929688 50.386719 -17.195312 53.1875 -19.59375 C 60.121094 -25.992188 66.117188 -33.058594 71.714844 -40.65625 C 72.117188 -41.058594 72.382812 -41.589844 72.648438 -42.125 C 72.917969 -42.65625 72.78125 -43.191406 72.515625 -43.589844 Z M 4 -88.644531 C 4.53125 -91.3125 5.332031 -93.84375 6.796875 -96.246094 C 7.066406 -96.777344 7.597656 -97.175781 8.265625 -97.042969 C 8.929688 -96.910156 9.199219 -96.246094 9.199219 -95.710938 C 9.597656 -92.777344 9.597656 -88.511719 9.199219 -83.714844 L 3.332031 -83.714844 C 3.464844 -85.3125 3.734375 -87.046875 4 -88.644531 Z M 2.667969 -76.25 C 2.800781 -77.714844 2.933594 -79.316406 3.066406 -81.046875 L 8.929688 -81.046875 C 7.730469 -69.183594 4.933594 -54.519531 3.464844 -46.257812 C 1.601562 -58.253906 2.667969 -74.78125 2.667969 -76.25 Z M 2.667969 -76.25 "/></g></g></g><g fill="#ffffff" fill-opacity="1"><g transform="translate(899.017014, 444.440787)"><g><path d="M 19.863281 -30.394531 C 21.863281 -30.527344 23.859375 -30.527344 25.859375 -30.792969 C 26.925781 -30.792969 27.992188 -31.191406 29.058594 -31.460938 C 36.792969 -34.125 43.988281 -37.722656 50.253906 -43.058594 C 50.65625 -43.324219 51.054688 -43.589844 51.453125 -43.988281 C 51.855469 -44.65625 51.988281 -45.324219 51.453125 -45.988281 C 51.054688 -46.65625 50.253906 -46.789062 49.589844 -46.257812 C 48.390625 -45.457031 47.324219 -44.65625 46.257812 -43.855469 C 41.191406 -39.859375 35.324219 -37.191406 29.328125 -34.925781 C 23.859375 -32.925781 17.996094 -33.058594 12.265625 -34.390625 C 10.664062 -34.792969 9.066406 -35.589844 7.597656 -36.390625 C 5.867188 -37.457031 4.664062 -38.925781 3.867188 -40.789062 C 3.464844 -41.722656 3.734375 -42.390625 4.933594 -42.65625 C 5.730469 -42.789062 6.53125 -42.921875 7.464844 -43.191406 C 9.730469 -43.589844 11.863281 -44.65625 13.597656 -46.257812 C 15.0625 -47.722656 15.996094 -49.320312 16.261719 -51.453125 C 16.53125 -53.585938 15.863281 -55.1875 13.730469 -56.253906 C 11.332031 -57.585938 8.796875 -57.453125 6.398438 -56.121094 C -0.667969 -52.121094 -2.265625 -41.058594 3.734375 -35.324219 C 5.332031 -33.859375 7.066406 -32.925781 9.066406 -32.125 C 12.53125 -30.792969 16.261719 -30.394531 19.863281 -30.394531 Z M 5.066406 -45.988281 C 4 -45.988281 3.464844 -46.390625 3.597656 -47.054688 C 4.132812 -50.253906 5.867188 -52.386719 8.796875 -53.722656 C 9.332031 -53.988281 9.996094 -53.988281 10.53125 -53.988281 C 12.929688 -53.855469 13.863281 -52.253906 12.664062 -50.253906 C 10.929688 -47.1875 8 -46.257812 5.066406 -45.988281 Z M 5.066406 -45.988281 "/></g></g></g><g fill="#ffffff" fill-opacity="1"><g transform="translate(946.870644, 444.440787)"><g/></g></g><g fill="#ffffff" fill-opacity="1"><g transform="translate(1006.854323, 444.440787)"><g><path d="M 4.53125 -26.792969 C 6.265625 -26.792969 7.199219 -27.992188 8 -29.328125 C 9.332031 -31.59375 10.398438 -34.125 11.332031 -36.65625 C 13.0625 -41.191406 14.664062 -45.722656 16.261719 -50.253906 C 17.730469 -54.789062 19.328125 -59.320312 21.328125 -63.71875 C 21.863281 -64.917969 22.394531 -66.117188 23.195312 -67.316406 C 23.59375 -68.117188 24.261719 -68.917969 25.0625 -69.582031 C 25.59375 -70.25 26.527344 -69.984375 26.792969 -69.183594 C 27.058594 -68.25 27.328125 -67.316406 27.460938 -66.382812 C 27.992188 -63.71875 28.125 -61.050781 28.125 -58.253906 C 28.261719 -51.722656 28.792969 -45.324219 29.59375 -38.789062 C 29.992188 -35.726562 30.925781 -32.792969 32.925781 -30.257812 C 34.523438 -28.125 36.792969 -28.125 38.523438 -30.125 C 39.324219 -31.058594 39.992188 -32.257812 40.65625 -33.457031 C 41.589844 -34.792969 42.257812 -36.257812 43.058594 -37.589844 C 44.65625 -40.125 45.988281 -40.523438 48.65625 -39.324219 L 54.652344 -36.390625 C 56.121094 -35.589844 57.585938 -34.660156 59.320312 -34.257812 C 65.71875 -32.257812 72.117188 -31.191406 78.914062 -32.527344 C 85.847656 -33.726562 92.113281 -36.390625 97.578125 -40.789062 C 98.109375 -41.324219 98.777344 -41.722656 99.175781 -42.257812 C 99.710938 -42.789062 99.84375 -43.324219 99.445312 -43.988281 C 99.042969 -44.65625 98.109375 -44.921875 97.578125 -44.65625 C 96.644531 -44.125 95.84375 -43.457031 95.179688 -42.921875 C 83.449219 -33.59375 66.117188 -32.792969 54.921875 -39.722656 C 53.585938 -40.523438 52.253906 -41.191406 50.921875 -41.855469 L 48.921875 -42.65625 C 45.457031 -43.722656 42.921875 -42.921875 40.789062 -39.992188 C 39.992188 -38.65625 39.191406 -37.191406 38.390625 -35.859375 L 36.792969 -32.925781 C 36.125 -31.992188 35.324219 -32.125 34.792969 -33.058594 C 33.457031 -35.457031 32.792969 -37.992188 32.527344 -40.789062 C 31.726562 -47.855469 31.324219 -55.054688 31.058594 -62.117188 C 31.058594 -64.25 30.792969 -66.25 30.394531 -68.382812 L 29.59375 -70.785156 C 28.261719 -73.582031 25.992188 -74.117188 23.59375 -72.515625 C 22.394531 -71.714844 21.460938 -70.648438 20.796875 -69.582031 C 19.863281 -67.984375 19.0625 -66.25 18.261719 -64.652344 C 16.394531 -60.519531 14.929688 -56.121094 13.464844 -51.855469 L 7.464844 -35.589844 C 6.933594 -34.257812 6.265625 -32.925781 5.597656 -31.59375 C 5.464844 -31.460938 5.199219 -31.324219 4.933594 -31.191406 C 4.53125 -31.191406 4.265625 -31.460938 4.132812 -31.859375 C 4 -32.390625 3.734375 -32.925781 3.734375 -33.59375 C 3.199219 -36.125 2.933594 -38.65625 3.199219 -41.324219 C 3.199219 -42.125 3.464844 -43.058594 3.066406 -43.855469 C 2.933594 -44.390625 2.53125 -44.65625 2 -44.789062 C 1.464844 -44.789062 1.066406 -44.523438 0.800781 -44.125 C 0.535156 -43.722656 0.265625 -43.191406 0.265625 -42.789062 C 0.132812 -41.457031 0.132812 -40.125 0 -39.457031 C 0.132812 -35.726562 0.265625 -32.792969 1.464844 -29.992188 C 2 -28.527344 2.667969 -26.925781 4.53125 -26.792969 Z M 4.53125 -26.792969 "/></g></g></g><g fill="#ffffff" fill-opacity="1"><g transform="translate(1102.561583, 444.440787)"><g><path d="M 47.988281 -16.664062 C 54.652344 -14.929688 61.1875 -15.863281 67.449219 -18.664062 C 72.117188 -20.796875 76.515625 -23.460938 80.648438 -26.660156 C 86.378906 -31.058594 91.179688 -36.257812 96.109375 -41.589844 L 96.644531 -42.390625 C 97.042969 -43.058594 96.910156 -43.988281 96.378906 -44.390625 C 95.84375 -44.789062 95.179688 -44.789062 94.644531 -44.390625 C 94.113281 -43.988281 93.710938 -43.589844 93.3125 -43.191406 C 91.710938 -41.457031 90.113281 -39.722656 88.511719 -38.125 C 82.648438 -31.992188 76.25 -26.660156 68.652344 -22.792969 C 65.050781 -20.929688 61.1875 -19.730469 57.1875 -19.0625 C 45.457031 -17.597656 36.65625 -25.726562 34.257812 -34.257812 C 33.324219 -37.992188 33.324219 -41.722656 33.726562 -45.589844 C 33.859375 -47.722656 34.125 -49.722656 34.257812 -51.855469 C 34.390625 -52.65625 34.390625 -53.585938 34.257812 -54.386719 C 33.992188 -56.386719 32.527344 -57.1875 30.792969 -56.121094 C 29.992188 -55.71875 29.191406 -55.054688 28.125 -54.253906 L 26.394531 -56.652344 C 24.925781 -58.652344 22.792969 -59.851562 20.261719 -60.253906 C 16.664062 -60.785156 13.332031 -60.121094 10.398438 -57.988281 C 8.664062 -56.785156 7.199219 -55.320312 6 -53.585938 C 3.199219 -49.722656 1.332031 -45.457031 0.535156 -40.789062 C 0 -38.390625 -0.132812 -35.859375 0.398438 -33.457031 C 1.464844 -27.59375 6.53125 -25.59375 11.464844 -28.925781 C 12.128906 -29.328125 12.796875 -29.859375 13.464844 -30.527344 L 17.460938 -34.792969 C 20.796875 -38.65625 23.859375 -42.65625 26.660156 -46.789062 C 27.726562 -48.253906 28.792969 -49.589844 29.859375 -50.921875 C 29.992188 -51.054688 30.257812 -51.054688 30.527344 -51.054688 C 31.058594 -51.1875 31.058594 -50.65625 31.058594 -50.386719 C 30.660156 -47.054688 30.394531 -43.722656 30.394531 -40.390625 C 30.394531 -37.191406 30.925781 -33.992188 32.125 -31.058594 C 35.191406 -23.726562 40.257812 -18.796875 47.988281 -16.664062 Z M 9.066406 -31.058594 C 6.796875 -29.859375 5.066406 -30.394531 3.867188 -32.660156 C 3.332031 -33.992188 3.066406 -35.324219 3.066406 -36.65625 C 3.597656 -43.191406 5.730469 -49.054688 10.398438 -53.855469 C 13.195312 -56.785156 16.664062 -58.121094 20.796875 -56.785156 C 23.328125 -55.988281 24.527344 -54.253906 25.328125 -51.855469 C 25.460938 -51.320312 25.460938 -50.65625 25.0625 -50.121094 L 24.261719 -48.921875 C 20.929688 -43.988281 17.328125 -39.457031 13.464844 -34.925781 C 12.128906 -33.457031 10.796875 -32.125 9.066406 -31.058594 Z M 9.066406 -31.058594 "/></g></g></g><g fill="#ffffff" fill-opacity="1"><g transform="translate(1195.469566, 444.440787)"><g><path d="M 39.859375 -14.796875 C 41.992188 -14.929688 44.125 -15.464844 46.257812 -16.128906 C 51.1875 -17.996094 55.1875 -20.929688 58.785156 -24.527344 C 63.851562 -29.59375 67.449219 -35.859375 71.316406 -41.855469 C 71.582031 -42.125 71.714844 -42.390625 71.714844 -42.789062 C 71.851562 -43.457031 71.582031 -43.988281 70.917969 -44.257812 C 70.515625 -44.523438 69.984375 -44.523438 69.582031 -44.257812 C 69.050781 -43.855469 68.652344 -43.324219 68.382812 -42.789062 L 63.183594 -35.191406 C 60.917969 -31.460938 58.121094 -28.261719 55.054688 -25.328125 C 51.589844 -21.996094 47.589844 -19.59375 42.921875 -18.394531 C 37.722656 -17.0625 33.191406 -18.128906 29.191406 -21.726562 C 25.859375 -24.660156 23.328125 -28.261719 21.59375 -32.390625 C 20.527344 -34.925781 19.59375 -37.457031 18.664062 -39.992188 C 17.328125 -43.722656 14.796875 -45.589844 10.796875 -45.324219 L 8.265625 -45.324219 C 5.332031 -45.324219 5.199219 -45.589844 5.867188 -48.253906 C 6.53125 -50.65625 7.066406 -53.054688 7.066406 -55.585938 C 7.199219 -58.253906 6.664062 -60.917969 5.332031 -63.320312 C 2.53125 -68.515625 -3.734375 -69.582031 -8.132812 -65.71875 C -9.066406 -64.917969 -9.863281 -63.984375 -10.398438 -62.917969 C -13.464844 -56.652344 -11.996094 -51.054688 -7.464844 -47.1875 C -3.332031 -43.324219 5.332031 -41.992188 10.265625 -42.257812 C 13.597656 -42.523438 14.53125 -41.722656 15.730469 -38.65625 C 16.796875 -36.125 17.730469 -33.59375 18.796875 -31.058594 C 20.796875 -26.261719 23.726562 -22.128906 27.859375 -18.664062 C 31.324219 -15.863281 35.324219 -14.53125 39.859375 -14.796875 Z M 0.933594 -46.390625 C -1.332031 -46.921875 -3.464844 -47.855469 -5.332031 -49.457031 C -9.464844 -52.921875 -9.464844 -57.585938 -7.730469 -61.050781 C -6.398438 -64.117188 -3.332031 -65.453125 -0.535156 -64.652344 C 1.066406 -64.117188 2.265625 -63.183594 3.066406 -61.71875 C 4.265625 -59.585938 4.398438 -57.1875 4.53125 -55.1875 C 4.265625 -52.253906 4 -49.722656 3.066406 -47.324219 C 2.53125 -46.390625 2.132812 -46.121094 0.933594 -46.390625 Z M 0.933594 -46.390625 "/></g></g></g></svg>